<?xml version="1.0" standalone="no"?>
<!DOCTYPE svg PUBLIC "-//W3C//DTD SVG 20010904//EN"
 "http://www.w3.org/TR/2001/REC-SVG-20010904/DTD/svg10.dtd">
<svg version="1.0" xmlns="http://www.w3.org/2000/svg"
 width="821.000000pt" height="821.000000pt" viewBox="0 0 821.000000 821.000000"
 preserveAspectRatio="xMidYMid meet">
<metadata>
Created by potrace 1.14, written by Peter Selinger 2001-2017
</metadata>
<g transform="translate(0.000000,821.000000) scale(0.100000,-0.100000)"
fill="#000000" stroke="none">
<path d="M3847 8199 c-835 -50 -1637 -361 -2307 -895 -173 -138 -485 -450
-624 -624 -191 -238 -378 -535 -502 -796 -329 -689 -459 -1446 -379 -2209 183
-1739 1468 -3180 3175 -3560 305 -68 562 -95 901 -95 943 0 1818 307 2562 898
170 136 493 459 631 632 112 140 279 386 358 525 284 501 456 1035 520 1610 8
75 13 239 13 440 -1 342 -10 457 -61 735 -231 1260 -1047 2342 -2199 2917
-647 324 -1354 466 -2088 422z m646 -317 c27 -12 63 -34 80 -48 44 -37 90
-102 84 -118 -3 -8 -34 -23 -68 -35 l-62 -21 -43 40 c-23 21 -61 44 -83 50
-77 20 -159 -21 -193 -98 -50 -111 35 -236 158 -234 45 0 73 12 117 49 l29 23
61 -32 c33 -18 62 -38 65 -45 6 -20 -77 -94 -137 -121 -46 -22 -71 -26 -136
-26 -134 0 -232 58 -296 176 -30 56 -34 71 -34 143 0 67 4 89 28 137 41 83
129 155 222 179 51 14 157 4 208 -19z m-860 -44 c46 -26 87 -79 87 -113 0 -27
-9 -31 -82 -40 -51 -6 -57 -5 -81 19 -30 30 -81 35 -127 11 -36 -19 -40 -51
-7 -65 12 -5 67 -19 121 -29 159 -32 225 -84 234 -185 10 -118 -85 -197 -253
-213 -89 -8 -162 15 -209 67 -42 47 -48 85 -13 93 53 14 127 19 127 10 0 -14
46 -33 81 -33 47 0 99 26 99 49 0 27 -21 37 -126 56 -164 31 -236 80 -249 169
-12 80 22 146 100 191 85 50 220 56 298 13z m1407 -49 c106 -28 149 -49 187
-93 42 -47 57 -97 49 -163 -11 -94 -61 -165 -139 -198 -22 -9 -37 -21 -34 -28
2 -7 19 -51 37 -99 19 -49 31 -90 28 -93 -3 -3 -43 5 -89 17 l-84 24 -35 93
c-33 89 -37 95 -73 107 -43 15 -43 16 -72 -88 -8 -32 -18 -58 -21 -58 -17 0
-130 33 -137 39 -9 9 142 583 156 592 6 4 40 -1 76 -11 36 -10 104 -28 151
-41z m-2037 -142 c63 -29 118 -82 149 -146 31 -63 32 -176 1 -242 -30 -66 -86
-124 -151 -156 -48 -24 -70 -28 -137 -28 -67 0 -89 4 -137 28 -107 53 -163
144 -163 267 0 85 21 142 75 203 43 49 82 51 110 5 26 -43 25 -70 -5 -114 -38
-56 -41 -95 -14 -151 31 -62 77 -93 139 -93 148 0 210 195 89 280 -17 12 -54
25 -82 29 -48 6 -53 9 -75 48 -26 48 -23 79 11 94 35 15 132 3 190 -24z m2669
-91 c112 -51 204 -100 206 -108 4 -18 -45 -128 -57 -128 -5 0 -66 27 -136 60
-70 33 -133 60 -139 60 -7 0 -20 -16 -29 -35 -16 -34 -16 -35 6 -48 12 -8 62
-31 110 -53 49 -21 91 -44 93 -50 6 -12 -44 -124 -55 -124 -5 0 -56 23 -114
50 -58 28 -110 50 -115 50 -14 0 -36 -60 -26 -70 5 -4 65 -34 134 -66 69 -31
128 -60 133 -64 4 -3 -2 -28 -14 -54 -11 -26 -19 -49 -17 -51 2 -2 118 71 258
161 140 91 260 168 267 171 18 7 133 -75 133 -95 0 -10 -31 -151 -69 -312 -39
-162 -68 -296 -66 -298 2 -3 91 76 197 174 106 99 204 188 216 198 l23 20 49
-49 c30 -30 50 -58 50 -72 0 -12 -28 -96 -62 -188 -33 -91 -59 -168 -56 -171
3 -2 87 19 187 47 l182 52 55 -54 c29 -29 54 -56 54 -60 0 -4 -84 -84 -187
-180 -104 -95 -205 -188 -226 -208 l-37 -35 -50 49 c-28 27 -50 55 -50 61 0 7
47 57 105 110 57 54 103 100 101 102 -2 2 -61 -13 -130 -34 l-127 -37 -34 33
c-19 19 -35 41 -35 49 1 9 21 68 45 131 24 63 42 116 40 118 -2 3 -50 -39
-107 -92 -57 -53 -110 -96 -118 -95 -8 0 -35 24 -60 52 -25 29 -72 71 -105 93
l-60 41 0 56 0 55 -93 67 c-94 67 -115 73 -142 40 -21 -25 -49 -17 -116 30
-34 25 -67 45 -72 45 -13 0 -394 178 -405 189 -9 9 241 561 255 561 4 0 99
-42 210 -94z m-3283 -152 c39 -20 62 -40 89 -82 35 -52 37 -59 36 -131 -1 -42
-4 -87 -5 -100 -4 -22 5 -28 89 -64 50 -22 92 -43 92 -46 0 -10 -136 -91 -153
-91 -8 0 -53 16 -99 36 -80 34 -84 35 -115 20 -18 -9 -33 -21 -33 -28 0 -7 16
-39 35 -71 19 -32 35 -62 35 -66 0 -5 -28 -25 -62 -45 -50 -30 -63 -35 -73
-24 -7 7 -81 125 -164 263 -119 196 -148 252 -139 261 26 23 271 167 306 180
57 20 103 17 161 -12z m1806 -299 c39 -8 97 -28 130 -44 34 -17 93 -35 135
-41 111 -17 300 -63 430 -105 605 -195 1125 -570 1512 -1092 478 -644 677
-1477 542 -2273 -103 -610 -380 -1159 -808 -1599 -493 -505 -1086 -802 -1806
-903 -152 -21 -476 -16 -645 10 -657 101 -1236 393 -1700 857 -466 466 -754
1039 -857 1705 -19 124 -22 185 -22 425 0 236 3 301 21 415 106 678 391 1248
858 1715 427 427 958 710 1556 830 70 14 155 36 190 49 158 59 334 78 464 51z
m-2364 -98 c51 -34 79 -82 79 -135 l0 -45 33 6 c18 3 50 -1 71 -8 103 -36 145
-144 94 -245 -25 -49 -291 -300 -318 -300 -8 1 -46 36 -84 79 l-68 78 -66 6
c-36 4 -69 12 -73 18 -4 7 -5 37 -2 68 l5 56 -66 72 c-36 39 -66 79 -66 90 0
21 241 241 292 266 49 25 128 22 169 -6z m-668 -635 c20 -14 37 -30 37 -35 0
-6 -37 -67 -82 -135 l-82 -124 27 -24 c16 -13 33 -24 40 -24 7 0 41 45 77 100
36 55 72 100 80 100 25 -1 112 -69 104 -83 -4 -7 -34 -51 -66 -99 -32 -48 -58
-93 -58 -99 0 -15 30 -38 50 -38 8 -1 51 53 94 120 44 66 83 122 87 125 11 6
119 -66 119 -79 0 -19 -245 -387 -258 -387 -10 0 -479 306 -505 330 -8 7 162
277 230 368 27 36 28 35 106 -16z m6129 -268 c64 -104 117 -194 118 -201 0
-19 -113 -83 -127 -71 -7 5 -44 62 -84 126 -39 64 -73 119 -75 121 -7 8 -74
-28 -74 -40 0 -6 27 -55 60 -108 33 -54 60 -103 60 -109 0 -10 -93 -72 -109
-72 -5 0 -37 45 -70 100 -34 54 -66 102 -71 105 -11 7 -60 -23 -60 -37 0 -6
34 -65 75 -133 41 -67 75 -126 75 -131 0 -14 -109 -77 -123 -71 -7 3 -65 92
-130 197 -84 137 -115 196 -108 203 22 22 506 316 516 313 5 -1 62 -88 127
-192z m-6276 -339 c147 -63 272 -119 277 -124 8 -8 -45 -141 -57 -141 -3 0
-47 18 -97 40 -51 22 -97 40 -104 40 -14 0 -108 -221 -98 -230 5 -4 50 -24
101 -46 64 -26 92 -43 92 -55 0 -22 -48 -129 -58 -129 -11 0 -546 230 -555
239 -9 9 42 141 55 141 5 0 51 -18 103 -40 52 -22 100 -40 107 -40 19 0 109
217 94 228 -6 5 -51 26 -101 46 -49 21 -94 42 -98 46 -10 9 48 140 62 140 5 0
130 -52 277 -115z m6530 -160 c71 -180 80 -235 44 -304 -57 -113 -223 -164
-326 -100 -19 11 -37 18 -42 15 -5 -3 -31 -41 -58 -85 -27 -44 -54 -81 -60
-81 -12 0 -64 125 -64 155 0 10 23 54 51 96 49 75 50 79 39 114 -6 19 -18 35
-26 35 -8 0 -42 -11 -76 -25 -34 -14 -65 -22 -70 -17 -19 19 -56 127 -47 137
14 14 541 224 558 222 8 -1 40 -70 77 -162z m-6988 -385 c28 -7 52 -17 52 -23
-1 -7 -9 -47 -19 -89 -13 -57 -15 -80 -7 -87 9 -7 409 -101 431 -101 9 0 5
-54 -9 -105 -10 -41 -17 -50 -34 -48 -11 1 -111 23 -223 48 -112 25 -206 42
-210 38 -4 -5 -15 -43 -24 -86 -10 -43 -23 -81 -31 -84 -22 -8 -125 18 -131
33 -5 15 90 459 107 502 7 15 16 22 28 19 9 -3 41 -11 70 -17z m7175 -134 l15
-80 -32 -30 c-17 -17 -59 -57 -94 -89 -34 -32 -62 -60 -62 -62 0 -1 52 -22
116 -46 63 -23 119 -50 123 -58 11 -21 34 -147 30 -160 -2 -5 -98 27 -214 71
l-210 81 -75 -13 c-41 -8 -93 -14 -115 -15 l-40 0 -12 60 c-7 33 -11 65 -8 72
3 10 19 15 158 43 57 11 65 18 225 165 92 85 170 151 174 147 4 -4 13 -43 21
-86z m-7012 -765 c49 -49 35 -126 -28 -156 -44 -21 -85 -12 -118 27 -29 34
-32 66 -10 108 19 37 41 49 88 50 29 0 45 -7 68 -29z m6846 4 c59 -41 46 -142
-22 -171 -71 -29 -135 14 -135 90 0 57 39 96 95 96 22 0 50 -7 62 -15z m-216
-539 l175 -145 102 -12 c56 -7 107 -16 113 -20 8 -4 8 -26 0 -74 -5 -37 -12
-69 -15 -72 -2 -2 -55 1 -118 7 l-113 12 -198 -91 c-109 -50 -202 -91 -208
-91 -6 0 -8 8 -5 18 2 9 8 47 12 84 3 37 11 71 18 76 6 4 56 28 111 52 55 24
104 47 108 51 5 4 -37 44 -93 89 -83 67 -101 86 -97 104 3 11 9 51 12 89 4 37
10 67 14 67 3 0 85 -65 182 -144z m-6473 32 l3 -78 -28 -1 c-15 0 -152 -8
-303 -18 -151 -10 -278 -16 -282 -14 -14 7 -9 153 5 154 6 0 129 9 272 19 143
10 276 17 295 16 l35 -1 3 -77z m-116 -208 c149 -70 229 -239 184 -392 -20
-68 -76 -153 -102 -153 -11 0 -33 21 -56 54 l-37 54 23 41 c32 56 38 90 25
138 -30 111 -164 160 -260 95 -64 -43 -90 -147 -55 -215 15 -29 64 -76 87 -84
17 -6 -8 -138 -28 -145 -21 -8 -77 21 -126 66 -80 74 -121 196 -99 298 27 129
106 220 225 259 57 19 162 11 219 -16z m6912 -499 c5 -8 -39 -139 -50 -151 -3
-2 -26 -7 -51 -10 l-46 -5 -37 -110 -38 -110 36 -38 37 -37 -25 -73 c-14 -39
-30 -72 -36 -72 -6 0 -120 94 -253 208 -188 163 -241 214 -241 233 0 13 9 48
21 79 18 47 24 55 47 56 24 1 572 34 614 38 9 0 19 -3 22 -8z m-6567 -271 c45
-113 81 -211 80 -218 -2 -12 -106 -62 -128 -62 -4 0 -33 63 -65 140 -31 78
-60 142 -63 144 -12 8 -71 -23 -71 -37 0 -7 18 -58 40 -112 22 -54 40 -104 40
-110 0 -14 -103 -59 -121 -53 -6 2 -31 53 -55 112 -24 60 -46 111 -48 114 -9
9 -66 -20 -66 -34 0 -7 23 -68 50 -135 28 -67 50 -129 50 -139 0 -12 -18 -24
-56 -39 -31 -11 -61 -21 -68 -21 -15 0 -179 401 -174 425 3 19 518 234 553
232 15 -2 35 -43 102 -207z m6037 -354 c114 -125 206 -233 206 -240 0 -13 -68
-117 -83 -127 -5 -4 -86 13 -180 37 -94 23 -173 41 -176 39 -2 -2 47 -65 108
-139 61 -74 111 -142 111 -151 0 -17 -61 -118 -77 -128 -9 -6 -599 166 -610
177 -8 7 60 118 79 130 10 6 72 -9 182 -43 93 -29 170 -50 172 -48 3 2 -47 65
-111 140 -63 74 -115 142 -115 150 0 20 51 105 67 111 6 2 87 -15 179 -40 92
-24 171 -43 176 -42 4 2 -46 62 -112 133 -65 72 -119 136 -120 143 0 21 74
133 87 130 7 -2 104 -106 217 -232z m-5756 -240 c115 -58 174 -151 180 -280 4
-83 -10 -156 -31 -156 -7 1 -37 16 -67 34 l-55 33 3 50 c7 105 -55 183 -152
191 -66 5 -115 -15 -152 -64 -25 -32 -29 -46 -29 -100 0 -48 5 -69 21 -90 31
-42 67 -65 120 -79 46 -12 49 -14 61 -61 7 -27 13 -60 13 -73 0 -23 -1 -24
-73 -19 -124 8 -220 76 -274 196 -34 72 -36 185 -5 255 60 136 164 200 312
194 57 -3 87 -10 128 -31z m442 -480 c68 -63 135 -134 149 -157 83 -140 -40
-332 -212 -332 -66 0 -60 9 -77 -126 -5 -46 -12 -86 -14 -88 -2 -2 -33 25 -70
59 l-67 63 14 100 15 99 -32 29 -31 30 -51 -57 c-28 -31 -56 -56 -63 -56 -21
0 -111 91 -103 105 11 20 405 445 412 445 3 0 62 -51 130 -114z m4519 -62 c95
-48 157 -168 133 -257 -12 -45 -18 -41 106 -71 47 -12 87 -25 88 -31 2 -5 -27
-34 -63 -64 l-65 -55 -94 24 c-89 23 -96 23 -122 8 -15 -9 -28 -24 -30 -32 -2
-9 18 -41 45 -72 l48 -57 -54 -49 c-29 -27 -58 -47 -65 -45 -16 5 -396 447
-396 461 0 10 201 188 253 225 65 46 143 51 216 15z m-4017 -335 c103 -67 188
-128 188 -135 0 -21 -63 -114 -77 -114 -7 0 -67 36 -135 80 l-123 80 -22 -28
c-13 -15 -23 -33 -23 -39 0 -7 45 -42 100 -78 55 -35 100 -70 100 -76 0 -17
-60 -109 -71 -109 -4 0 -54 30 -110 66 l-103 67 -18 -23 c-10 -12 -18 -29 -18
-36 0 -8 56 -51 125 -95 69 -45 125 -85 125 -90 0 -20 -74 -120 -86 -115 -29
11 -376 240 -380 251 -6 14 314 515 329 515 6 0 95 -55 199 -121z m3584 -95
c111 -195 128 -240 121 -317 -17 -186 -252 -316 -417 -229 -29 15 -65 43 -81
62 -30 38 -209 344 -209 357 0 11 107 73 125 73 7 0 54 -71 104 -158 50 -87
98 -166 108 -174 49 -45 118 -40 176 12 28 24 32 35 32 77 0 42 -11 67 -94
211 -64 113 -90 167 -83 174 15 15 105 67 118 67 5 1 50 -69 100 -155z m-3085
-160 c35 -14 68 -31 72 -38 8 -11 0 -647 -9 -655 -2 -2 -35 8 -74 23 -70 28
-70 28 -70 66 0 21 -3 45 -6 53 -3 8 -54 34 -115 57 l-110 43 -34 -33 -35 -34
-72 30 c-40 16 -73 34 -73 41 0 9 449 473 458 473 2 0 32 -12 68 -26z m2339
-111 c113 -36 202 -156 203 -272 1 -123 -76 -244 -185 -291 -115 -50 -255 -24
-343 64 -84 84 -108 203 -65 320 25 66 89 136 125 136 43 0 88 -104 55 -125
-26 -16 -52 -89 -47 -133 9 -83 70 -137 152 -137 60 0 95 20 133 75 60 88 -12
230 -117 230 -44 0 -54 6 -75 47 -21 42 -20 79 2 92 26 16 104 13 162 -6z
m-1896 -43 c19 -7 31 -37 77 -189 29 -100 57 -181 61 -181 5 0 59 68 120 151
l112 151 63 -6 c81 -8 93 -14 93 -40 0 -31 -96 -576 -103 -582 -3 -3 -37 -1
-76 6 -84 14 -80 0 -47 183 12 70 19 126 15 125 -4 -2 -42 -50 -84 -107 l-76
-104 -47 7 c-26 3 -52 13 -58 21 -6 8 -26 67 -44 130 -18 63 -36 115 -39 115
-4 0 -17 -63 -30 -141 -15 -83 -29 -143 -37 -146 -15 -6 -125 14 -136 25 -4 4
15 136 42 292 27 157 50 291 50 299 0 11 13 12 61 7 33 -4 71 -11 83 -16z
m1406 -39 c0 -5 -43 -99 -96 -208 l-96 -198 12 -109 c7 -59 8 -112 3 -116 -4
-5 -39 -10 -78 -12 l-70 -3 -12 108 c-6 60 -16 114 -21 120 -5 7 -68 88 -141
180 -73 93 -130 171 -128 174 5 5 126 22 159 23 10 0 49 -42 94 -100 42 -55
80 -100 83 -100 3 0 30 52 60 115 49 105 56 115 85 120 95 15 146 17 146 6z"/>
<path d="M4926 7662 c-9 -15 -36 -117 -36 -137 0 -17 11 -23 68 -38 37 -9 79
-17 93 -17 63 0 99 110 47 144 -29 19 -166 57 -172 48z"/>
<path d="M6050 6994 c-36 -24 -66 -49 -68 -53 -3 -9 96 -76 102 -70 3 2 12 33
21 69 9 36 18 73 21 83 8 26 -5 21 -76 -29z"/>
<path d="M2229 7252 c-81 -43 -99 -56 -99 -71 0 -15 68 -131 78 -131 19 0 146
87 154 106 13 27 5 64 -19 92 -30 34 -56 35 -114 4z"/>
<path d="M4020 6961 l-35 -7 46 -21 c98 -44 169 -137 169 -221 0 -120 -79
-184 -340 -277 -149 -53 -236 -101 -302 -166 -64 -63 -88 -124 -87 -218 l0
-56 24 52 c30 66 91 125 169 163 36 18 145 51 266 81 225 55 348 105 394 160
26 31 27 31 48 13 68 -58 108 -136 108 -210 0 -66 -46 -161 -103 -209 -104
-90 -236 -123 -567 -145 -395 -26 -615 -85 -787 -213 -147 -110 -233 -290
-233 -494 l0 -68 -57 -45 c-107 -84 -196 -217 -227 -336 -20 -77 -20 -202 -1
-274 39 -149 154 -291 296 -369 l77 -41 5 -153 c5 -163 20 -259 69 -457 128
-517 433 -1107 788 -1525 159 -187 467 -466 530 -480 14 -3 38 -1 53 4 54 21
55 25 60 431 6 432 24 627 108 1167 77 496 238 947 501 1403 34 59 -103 -88
-186 -200 -120 -160 -221 -337 -309 -540 -199 -458 -330 -1067 -356 -1661 l-7
-174 -112 113 c-339 343 -594 774 -772 1302 -136 403 -165 681 -89 858 26 60
121 150 200 189 144 71 253 96 664 153 160 23 337 50 395 61 382 72 613 188
696 350 39 76 40 181 2 254 -26 50 -93 123 -103 113 -3 -3 2 -21 10 -41 66
-158 -64 -298 -360 -385 -127 -37 -321 -72 -650 -117 -332 -45 -487 -71 -602
-101 -275 -71 -425 -186 -495 -376 -11 -32 -24 -58 -27 -58 -4 0 -27 13 -52
28 -100 64 -177 190 -186 306 -20 247 167 439 513 527 154 39 294 56 559 69
292 14 424 26 575 51 326 54 542 173 626 344 27 55 29 69 29 170 0 101 -2 115
-28 168 -37 74 -123 167 -199 214 -56 35 -59 38 -51 67 4 17 8 68 7 112 0 72
-4 90 -33 149 -40 80 -124 170 -202 213 -55 31 -56 33 -67 93 -21 114 -79 197
-167 238 -47 22 -142 33 -195 22z m675 -1027 c56 -58 88 -125 93 -201 5 -78
-10 -125 -61 -180 -123 -134 -390 -197 -912 -218 -417 -16 -656 -50 -843 -121
-36 -13 -66 -23 -68 -22 -1 2 2 30 8 63 29 186 167 315 403 375 104 27 267 47
490 60 321 19 452 43 581 106 76 37 165 110 204 167 29 42 39 39 105 -29z"/>
<path d="M3878 6856 c-10 -7 -62 -18 -117 -25 -471 -57 -935 -247 -1341 -549
-152 -113 -429 -390 -542 -542 -258 -346 -433 -730 -513 -1124 -73 -359 -74
-759 -5 -1120 140 -724 594 -1390 1230 -1805 465 -304 1018 -466 1530 -448
667 23 1341 325 1835 821 227 228 392 460 535 750 136 277 214 527 261 836 30
193 32 572 5 755 -77 528 -276 994 -592 1390 -397 496 -958 849 -1571 989
l-63 14 0 -23 c0 -17 17 -37 59 -69 156 -120 245 -274 258 -448 l6 -79 70 -67
c38 -37 87 -94 109 -126 99 -152 116 -351 44 -521 -10 -22 -13 -41 -7 -43 34
-11 109 -73 142 -117 51 -68 70 -123 76 -225 13 -216 -64 -460 -330 -1040
-170 -371 -251 -640 -311 -1025 -81 -520 -106 -806 -106 -1209 0 -209 -4 -321
-12 -348 -16 -53 -88 -132 -140 -153 -58 -24 -142 -23 -198 2 -92 40 -337 255
-496 434 -230 259 -409 519 -574 832 -218 417 -379 936 -397 1283 l-6 110 -58
38 c-81 53 -198 179 -241 262 -58 110 -79 187 -85 304 -11 210 63 392 228 565
66 69 67 71 74 140 34 334 240 573 593 690 l82 27 0 57 c1 248 151 411 490
532 130 46 229 94 237 115 9 25 -17 71 -72 124 -58 54 -62 56 -87 36z"/>
<path d="M1651 6809 c-34 -28 -61 -56 -61 -63 0 -16 42 -56 60 -56 7 0 37 21
66 46 42 36 54 52 54 74 0 27 -22 50 -48 50 -6 0 -38 -23 -71 -51z"/>
<path d="M1820 6650 c-38 -34 -70 -65 -70 -71 0 -20 44 -69 63 -69 22 0 147
116 147 137 0 16 -44 63 -59 63 -6 0 -42 -27 -81 -60z"/>
<path d="M7325 5544 c-33 -13 -63 -28 -67 -32 -11 -11 48 -153 69 -169 47 -36
133 3 133 60 -1 36 -49 159 -65 163 -5 2 -37 -8 -70 -22z"/>
<path d="M7255 2941 l-69 -6 69 -57 c38 -32 72 -55 76 -50 12 13 39 104 33
113 -3 5 -13 8 -22 7 -9 -1 -48 -4 -87 -7z"/>
<path d="M1655 1603 l-49 -56 63 -59 c76 -69 110 -76 154 -30 42 44 36 74 -30
143 -31 32 -63 59 -72 59 -9 0 -38 -26 -66 -57z"/>
<path d="M6225 1570 c-26 -11 -130 -100 -130 -112 0 -13 89 -118 100 -118 6 0
38 25 73 56 65 58 76 88 52 135 -9 15 -61 51 -72 48 -2 0 -12 -4 -23 -9z"/>
<path d="M2714 878 c-16 -18 -42 -48 -58 -65 l-29 -33 58 -25 c31 -14 59 -25
60 -23 8 9 15 178 8 178 -5 0 -22 -15 -39 -32z"/>
</g>
</svg>
