<?xml version="1.0" standalone="no"?>
<!DOCTYPE svg PUBLIC "-//W3C//DTD SVG 20010904//EN"
 "http://www.w3.org/TR/2001/REC-SVG-20010904/DTD/svg10.dtd">
<svg version="1.0" xmlns="http://www.w3.org/2000/svg"
 width="276.000000pt" height="276.000000pt" viewBox="0 0 276.000000 276.000000"
 preserveAspectRatio="xMidYMid meet">
<metadata>
Created by potrace 1.14, written by Peter Selinger 2001-2017
</metadata>
<g transform="translate(0.000000,276.000000) scale(0.100000,-0.100000)"
fill="#000000" stroke="none">
<path d="M432 1890 c-50 -47 -8 -154 55 -142 26 5 53 52 48 81 -2 9 -4 22 -4
29 -1 19 -39 52 -59 52 -10 0 -28 -9 -40 -20z"/>
<path d="M1800 1888 c-40 -44 -13 -124 38 -112 38 9 50 21 57 55 14 65 -51
104 -95 57z"/>
<path d="M2213 1798 c-30 -15 -46 -68 -38 -127 6 -44 3 -55 -45 -147 -28 -54
-69 -123 -91 -151 -78 -103 -160 -111 -197 -18 -15 36 -19 162 -8 256 8 72 -3
93 -45 87 -19 -3 -29 -23 -69 -138 -64 -188 -110 -261 -154 -244 -23 9 -27 32
-24 156 3 96 0 118 -15 141 -32 49 -90 54 -153 12 -26 -17 -38 -19 -30 -7 3 5
-4 27 -15 49 -24 48 -54 60 -101 40 -37 -15 -65 -61 -119 -191 -18 -44 -43
-98 -56 -122 -26 -46 -85 -103 -108 -105 -8 -1 -21 -2 -27 -3 -22 -4 -67 23
-85 50 -17 26 -16 27 13 48 50 36 131 119 148 153 52 103 -30 194 -139 153
-73 -28 -117 -110 -123 -229 l-5 -86 -48 -37 -48 -38 -10 38 c-5 20 -22 89
-36 152 -15 63 -30 129 -34 145 -6 25 -12 30 -40 31 -18 1 -38 -5 -45 -12 -7
-7 -28 -54 -45 -106 -35 -101 -60 -147 -100 -191 -63 -68 -152 -91 -212 -55
-31 19 -32 21 -13 30 29 16 44 39 44 70 0 62 -95 76 -125 18 -48 -93 35 -200
155 -200 127 0 229 87 295 250 l32 79 13 -57 c8 -31 15 -61 16 -67 1 -5 8 -32
14 -60 27 -113 28 -110 -37 -178 -89 -93 -117 -162 -99 -243 14 -62 93 -107
159 -90 37 9 83 62 97 112 12 42 10 129 -6 230 -6 41 -5 42 47 82 l53 40 39
-44 c53 -60 126 -74 202 -38 68 32 127 123 190 289 28 76 52 115 71 115 34 0
45 -100 16 -151 -21 -39 -47 -117 -56 -170 -8 -46 8 -89 32 -89 47 0 83 82 97
222 5 55 12 73 35 98 48 51 99 35 94 -30 -7 -87 -5 -189 4 -210 22 -55 82 -79
140 -55 37 16 84 79 108 143 23 64 29 67 31 23 6 -138 86 -218 199 -197 66 13
141 100 220 255 l38 75 23 -50 c12 -27 23 -53 23 -59 0 -5 -15 -20 -34 -32
-72 -46 -142 -170 -131 -230 2 -10 4 -26 4 -36 1 -9 16 -33 34 -52 52 -56 129
-55 189 2 49 46 65 141 42 248 -7 35 -8 64 -3 69 5 6 46 10 91 10 63 0 94 -5
128 -21 68 -31 115 -83 76 -83 -22 0 -46 -29 -46 -56 0 -58 77 -85 118 -41 67
71 -19 211 -152 249 -48 13 -165 16 -217 5 l-36 -7 -35 82 c-34 80 -35 84 -21
118 29 67 36 109 23 125 -14 17 -45 18 -77 3z m-1283 -173 c21 -25 1 -67 -62
-130 -68 -67 -78 -64 -59 21 9 37 23 66 45 89 36 38 57 43 76 20z m1364 -286
c17 -88 -2 -187 -41 -208 -64 -34 -106 46 -69 133 16 40 73 106 91 106 7 0 15
-14 19 -31z m-1704 -260 c4 -90 1 -105 -25 -133 -29 -31 -48 -33 -75 -6 -38
38 -18 119 47 191 33 37 38 39 44 21 4 -10 8 -43 9 -73z"/>
<path d="M1971 1754 c-12 -15 -21 -30 -21 -35 0 -15 23 -59 32 -59 16 0 7 -26
-22 -59 -52 -60 11 -59 67 1 22 23 50 84 48 103 -4 38 -18 63 -37 69 -38 10
-46 7 -67 -20z"/>
</g>
</svg>
